<svg aria-hidden="true" style="position: absolute; width: 0; height: 0; overflow: hidden;" version="1.1" xmlns="http://www.w3.org/2000/svg" xmlns:xlink="http://www.w3.org/1999/xlink">
<defs>
<symbol id="icon-facebook" viewBox="0 0 16 32">
<path d="M14.143 15.972h-4.034v14.865h-6.112v-14.865h-2.907v-5.224h2.907v-3.381c0-2.418 1.142-6.203 6.166-6.203l4.527 0.019v5.071h-3.285c-0.539 0-1.296 0.271-1.296 1.424v3.075h4.567l-0.534 5.219z"></path>
</symbol>
<symbol id="icon-github" viewBox="0 0 32 32">
<path d="M16 0c-8.788 0-16 7.212-16 16 0 7.499 5.262 14.312 12.25 16v-5.293c-0.692 0.152-1.33 0.156-2.034-0.052-0.946-0.279-1.714-0.909-2.284-1.869-0.364-0.613-1.008-1.278-1.68-1.23l-0.165-1.868c1.453-0.124 2.711 0.886 3.457 2.14 0.332 0.558 0.713 0.884 1.203 1.029 0.473 0.14 0.982 0.072 1.574-0.137 0.149-1.186 0.692-1.63 1.102-2.255v-0.001c-4.167-0.622-5.828-2.832-6.488-4.578-0.874-2.317-0.405-5.212 1.14-7.041 0.030-0.036 0.084-0.129 0.063-0.194-0.708-2.139 0.155-3.909 0.187-4.097 0.817 0.242 0.95-0.243 3.551 1.337l0.449 0.27c0.188 0.112 0.129 0.048 0.317 0.034 1.086-0.295 2.23-0.458 3.358-0.472 1.136 0.015 2.273 0.178 3.404 0.484l0.145 0.015c-0.013-0.002 0.040-0.009 0.127-0.062 3.248-1.968 3.132-1.324 4.003-1.608 0.032 0.188 0.883 1.987 0.182 4.099-0.095 0.291 2.816 2.956 1.203 7.235-0.659 1.746-2.32 3.957-6.487 4.578v0.001c0.534 0.814 1.176 1.247 1.173 2.927v6.608c6.988-1.688 12.25-8.501 12.25-16 0-8.788-7.212-16-16-16v0z"></path>
</symbol>
<symbol id="icon-telegram" viewBox="0 0 44 32">
<path d="M17.343 21.048l-0.675 8.86c0.966 0 1.384-0.387 1.885-0.852l4.527-4.038 9.381 6.412c1.72 0.895 2.933 0.424 3.397-1.477l6.157-26.929 0.002-0.002c0.546-2.374-0.92-3.302-2.596-2.72l-36.194 12.933c-2.47 0.895-2.433 2.18-0.42 2.762l9.253 2.686 21.494-12.552c1.011-0.625 1.931-0.279 1.175 0.346l-17.386 14.57z"></path>
</symbol>
<symbol id="icon-checkmark" viewBox="0 0 32 32">
<path d="M27 4l-15 15-7-7-5 5 12 12 20-20z"></path>
</symbol>
<symbol id="icon-burger" viewBox="0 0 46 32">
<path fill="none" stroke="#D41443" style="stroke: var(--color1, #D41443)" stroke-linejoin="miter" stroke-linecap="butt" stroke-miterlimit="4" stroke-width="2.2857" d="M0 2.286h45.714"></path>
<path fill="none" stroke="#D41443" style="stroke: var(--color1, #D41443)" stroke-linejoin="miter" stroke-linecap="butt" stroke-miterlimit="4" stroke-width="2.2857" d="M0 16h45.714"></path>
<path fill="none" stroke="#D41443" style="stroke: var(--color1, #D41443)" stroke-linejoin="miter" stroke-linecap="butt" stroke-miterlimit="4" stroke-width="2.2857" d="M0 29.714h45.714"></path>
</symbol>
<symbol id="icon-close" viewBox="0 0 32 32">
<path fill="none" stroke="#fff" style="stroke: var(--color1, #fff)" stroke-linejoin="miter" stroke-linecap="butt" stroke-miterlimit="4" stroke-width="2" d="M2.519 2l26.963 28"></path>
<path fill="none" stroke="#fff" style="stroke: var(--color1, #fff)" stroke-linejoin="miter" stroke-linecap="butt" stroke-miterlimit="4" stroke-width="2" d="M2 29.481l28-26.963"></path>
</symbol>
<symbol id="icon-cross" viewBox="0 0 11 11">
<path d="M11 1.10786L9.89214 0L5.5 4.39214L1.10786 0L0 1.10786L4.39214 5.5L0 9.89214L1.10786 11L5.5 6.60786L9.89214 11L11 9.89214L6.60786 5.5L11 1.10786Z"></path>
</symbol>
<symbol id="arrow-right" viewBox="0 0 32 32">
<path d="M19.414 27.414l10-10c0.781-0.781 0.781-2.047 0-2.828l-10-10c-0.781-0.781-2.047-0.781-2.828 0s-0.781 2.047 0 2.828l6.586 6.586h-19.172c-1.105 0-2 0.895-2 2s0.895 2 2 2h19.172l-6.586 6.586c-0.39 0.39-0.586 0.902-0.586 1.414s0.195 1.024 0.586 1.414c0.781 0.781 2.047 0.781 2.828 0z"></path>
</symbol>
<symbol id="icon-right-arrow" viewBox="0 0 32 32">
<path d="M24.889 14.751l-14.24-14.24c-0.329-0.33-0.769-0.511-1.238-0.511s-0.908 0.182-1.238 0.511l-1.049 1.048c-0.682 0.683-0.682 1.794 0 2.476l11.958 11.958-11.971 11.971c-0.329 0.33-0.511 0.769-0.511 1.238s0.182 0.908 0.511 1.238l1.049 1.048c0.33 0.33 0.769 0.511 1.238 0.511s0.908-0.182 1.238-0.511l14.254-14.253c0.33-0.331 0.511-0.772 0.51-1.242 0.001-0.471-0.18-0.912-0.51-1.243z"></path>
</symbol>
<symbol id="icon-reviews-dot" viewBox="0 0 35 32">
<path d="M33.053 16c0 8.837-7.163 16-16 16s-16-7.163-16-16c0-8.837 7.163-16 16-16s16 7.163 16 16z"></path>
</symbol>
<symbol id="icon-reviews-house" viewBox="0 0 35 32">
<path d="M32.64 15.401c0.599-0.65 0.541-1.646-0.129-2.225l-14.772-12.75c-0.671-0.578-1.745-0.566-2.402 0.027l-14.822 13.403c-0.656 0.594-0.689 1.589-0.071 2.222l0.372 0.382c0.617 0.633 1.613 0.708 2.224 0.168l1.108-0.979v14.326c0 0.879 0.722 1.591 1.612 1.591h5.778c0.89 0 1.612-0.712 1.612-1.591v-10.023h7.37v10.023c-0.013 0.878 0.624 1.59 1.515 1.59h6.123c0.89 0 1.613-0.711 1.613-1.59v-14.124c0 0 0.306 0.264 0.683 0.592s1.168 0.065 1.767-0.586l0.42-0.455z"></path>
</symbol>
<symbol id="icon-more" viewBox="0 0 26 32">
<path fill="none" stroke="#D41443" style="stroke: var(--color1, #D41443)" stroke-linejoin="round" stroke-linecap="round" stroke-miterlimit="4" stroke-width="6.4" d="M3.542 3.2l16.825 12.8-16.825 12.8"></path>
</symbol>
<symbol id="arrow-cont" viewBox="0 0 22 32">
<path stroke-linejoin="round" stroke-linecap="round" stroke-miterlimit="4" stroke-width="6.4" d="M4.545 3.2l13.7 12.8-13.7 12.8"></path>
</symbol>
<symbol id="icon-right-arrow" viewBox="0 0 32 32">
<path d="M24.889 14.751l-14.24-14.24c-0.329-0.33-0.769-0.511-1.238-0.511s-0.908 0.182-1.238 0.511l-1.049 1.048c-0.682 0.683-0.682 1.794 0 2.476l11.958 11.958-11.971 11.971c-0.329 0.33-0.511 0.769-0.511 1.238s0.182 0.908 0.511 1.238l1.049 1.048c0.33 0.33 0.769 0.511 1.238 0.511s0.908-0.182 1.238-0.511l14.254-14.253c0.33-0.331 0.511-0.772 0.51-1.242 0.001-0.471-0.18-0.912-0.51-1.243z"></path>
</symbol>

<symbol id="icon-milking" viewBox="0 0 32 32">
<path d="M23.467 20.8h-14.933c-0.295 0-0.533 0.239-0.533 0.533s0.239 0.533 0.533 0.533h0.587l0.866 8.224c0.112 1.086 1.029 1.911 2.121 1.909h7.787c1.093 0.002 2.010-0.823 2.122-1.91l0.865-8.223h0.587c0.295 0 0.533-0.239 0.533-0.533s-0.239-0.533-0.533-0.533zM20.954 29.978c-0.057 0.543-0.515 0.955-1.061 0.955h-7.787c-0.546 0-1.004-0.412-1.061-0.955l-0.853-8.112h11.616z"></path>
<path d="M26.667 0h-21.333c-0.589 0-1.067 0.478-1.067 1.067 0.004 2.651 0.904 5.222 2.554 7.296l-1.774 3.851c-0.298 0.642-0.328 1.376-0.083 2.041s0.744 1.204 1.387 1.499c0.642 0.297 1.375 0.327 2.039 0.082s1.202-0.744 1.497-1.387l1.252-2.707c0.704 0.322 1.44 0.572 2.195 0.745v1.915c0 1.473 1.194 2.667 2.667 2.667s2.667-1.194 2.667-2.667v-1.915c0.755-0.173 1.491-0.423 2.195-0.747l1.251 2.705c0.293 0.644 0.83 1.145 1.494 1.39s1.397 0.216 2.039-0.082c0.644-0.295 1.144-0.834 1.389-1.498s0.216-1.399-0.081-2.041l-1.774-3.851c1.65-2.074 2.55-4.645 2.554-7.296 0-0.589-0.478-1.067-1.067-1.067zM8.918 14.002c-0.316 0.68-1.061 1.050-1.794 0.889s-1.255-0.808-1.257-1.558c0-0.232 0.051-0.462 0.148-0.673l1.578-3.423c0.767 0.79 1.642 1.467 2.599 2.011zM26.133 13.333c-0.001 0.625-0.366 1.192-0.934 1.452-0.385 0.178-0.825 0.195-1.222 0.047s-0.72-0.447-0.896-0.833l-1.273-2.753c0.957-0.544 1.832-1.221 2.599-2.011l1.578 3.425c0.097 0.211 0.147 0.44 0.148 0.672zM24.153 7.947c-0.909 1.078-2.024 1.964-3.278 2.607-0.701 0.363-1.442 0.644-2.208 0.838v-2.325c0-0.295-0.239-0.533-0.533-0.533s-0.533 0.239-0.533 0.533v5.333c0 0.884-0.716 1.6-1.6 1.6s-1.6-0.716-1.6-1.6v-5.333c0-0.295-0.239-0.533-0.533-0.533s-0.533 0.239-0.533 0.533v2.325c-0.766-0.194-1.508-0.475-2.21-0.838-1.254-0.643-2.367-1.53-3.276-2.607-1.623-1.925-2.513-4.362-2.514-6.88h21.333c-0.001 2.518-0.891 4.955-2.514 6.88z"></path>
<path d="M8.663 7.261c0.123 0.146 0.314 0.214 0.502 0.181s0.343-0.165 0.407-0.344c0.065-0.179 0.029-0.379-0.094-0.525-0.966-1.146-1.613-2.525-1.877-4-0.034-0.188-0.165-0.343-0.344-0.408s-0.379-0.029-0.525 0.094c-0.146 0.123-0.215 0.314-0.181 0.502 0.298 1.659 1.026 3.211 2.113 4.5z"></path>
<path d="M16.533 19.2v-0.533c0-0.295-0.239-0.533-0.533-0.533s-0.533 0.239-0.533 0.533v0.533c0 0.295 0.239 0.533 0.533 0.533s0.533-0.239 0.533-0.533z"></path>
<path d="M13.867 26.133h4.267c1.178 0 2.133-0.955 2.133-2.133v-0.533c0-0.295-0.239-0.533-0.533-0.533s-0.533 0.239-0.533 0.533v0.533c0 0.589-0.478 1.067-1.067 1.067h-4.267c-0.589 0-1.067-0.478-1.067-1.067v-0.533c0-0.295-0.239-0.533-0.533-0.533s-0.533 0.239-0.533 0.533v0.533c0 1.178 0.955 2.133 2.133 2.133z"></path>
</symbol>

<symbol id="icon-cardio" viewBox="0 0 32 32">
<path d="M31.998 10.743c-0.146-7.272-9.019-12.631-15.998-6.528-6.974-6.099-15.853-0.747-15.998 6.528-0.053 2.665 1.076 5.232 3.267 7.422 0.006 0.006 4.446 4.422 12.070 12.005 0.366 0.364 0.957 0.364 1.323 0l12.070-12.005c2.19-2.19 3.32-4.756 3.267-7.422zM16 28.181l-10.299-10.243h3.295c0.329 0 0.635-0.173 0.804-0.455l0.72-1.2 2.687 4.221c0.395 0.621 1.323 0.565 1.639-0.102l3.708-7.826 2.622 4.869c0.164 0.304 0.481 0.493 0.826 0.493h4.296zM28.113 16.063h-5.55l-3.236-6.008c-0.363-0.674-1.344-0.653-1.673 0.043l-3.775 7.968-2.59-4.069c-0.378-0.594-1.24-0.571-1.596 0.021l-1.227 2.045h-4.578c-1.355-1.629-2.047-3.438-2.010-5.283 0.117-5.847 7.57-10.506 13.459-4.619 0.366 0.366 0.96 0.366 1.326 0 7.519-7.517 17.856 2.2 11.45 9.902z"></path>
</symbol>

<symbol id="icon-bucket" viewBox="0 0 32 32">
<path d="M30.4 11.809v-0.076c0-0.884-0.716-1.6-1.6-1.6 0-2.647-1.675-4.8-3.733-4.8-0.492-0-0.976 0.12-1.411 0.349-0.061 0.028-0.124 0.053-0.189 0.073v-0.356c0.192-0.713 0.864-1.189 1.6-1.133h1.067c1.178 0 2.133-0.955 2.133-2.133v-0.533c0-0.295-0.239-0.533-0.533-0.533h-1.067c-1.178 0-2.133 0.955-2.133 2.133v0.046c-0.382 0.060-0.747 0.204-1.067 0.421v-1.001c0-0.295-0.239-0.533-0.533-0.533s-0.533 0.239-0.533 0.533v3.089c-0.065-0.020-0.129-0.045-0.19-0.074-0.526-0.27-1.118-0.383-1.707-0.324-0.604-0.678-1.462-1.073-2.37-1.091-0.492 0.001-0.976 0.121-1.41 0.351-0.062 0.028-0.125 0.052-0.19 0.072v-0.357c0.192-0.713 0.864-1.189 1.6-1.133h1.067c1.178 0 2.133-0.955 2.133-2.133v-0.533c0-0.295-0.239-0.533-0.533-0.533h-1.067c-1.178 0-2.133 0.955-2.133 2.133v0.046c-0.382 0.060-0.747 0.204-1.067 0.421v-1.001c0-0.295-0.239-0.533-0.533-0.533s-0.533 0.239-0.533 0.533v3.090c-0.065-0.020-0.128-0.044-0.189-0.072-0.435-0.23-0.919-0.35-1.411-0.351-0.906 0.019-1.764 0.414-2.367 1.091-0.59-0.060-1.184 0.053-1.711 0.325-0.061 0.028-0.124 0.053-0.189 0.073v-3.089c0-0.295-0.239-0.533-0.533-0.533s-0.533 0.239-0.533 0.533v1.001c-0.32-0.217-0.684-0.361-1.067-0.421v-0.046c0-1.178-0.955-2.133-2.133-2.133h-1.067c-0.295 0-0.533 0.239-0.533 0.533v0.533c0 1.178 0.955 2.133 2.133 2.133h1.067c0.737-0.056 1.409 0.42 1.6 1.134v0.355c-0.065-0.020-0.129-0.045-0.19-0.074-0.435-0.229-0.918-0.348-1.41-0.348-2.058 0-3.733 2.153-3.733 4.8-0.884 0-1.6 0.716-1.6 1.6v0.076c-0.939 0.242-1.596 1.088-1.6 2.058v2.667c0.005 2.885 2.106 5.339 4.956 5.789l1.66 7.94c0.274 1.055 1.244 1.777 2.332 1.738h14.102c1.089 0.039 2.059-0.683 2.332-1.738l1.66-7.94c2.85-0.45 4.951-2.903 4.956-5.789v-2.667c-0.004-0.97-0.661-1.815-1.6-2.058zM26.667 2.133h0.533c0 0.589-0.478 1.067-1.067 1.067h-0.533c0-0.589 0.478-1.067 1.067-1.067zM19.733 1.067h0.533c0 0.589-0.478 1.067-1.067 1.067h-0.533c0-0.589 0.478-1.067 1.067-1.067zM4.8 2.133h0.533c0.589 0 1.067 0.478 1.067 1.067h-0.533c-0.589 0-1.067-0.478-1.067-1.067zM22.928 6.933h0.011c0.423-0.002 0.838-0.107 1.212-0.305 0.282-0.15 0.596-0.228 0.916-0.229 1.47 0 2.667 1.675 2.667 3.733h-5.963c0.063-0.352 0.095-0.709 0.097-1.067 0.005-0.902-0.201-1.793-0.601-2.602 0.155 0.035 0.306 0.089 0.448 0.16 0.374 0.2 0.79 0.306 1.214 0.308zM13.867 5.333c0.32 0.001 0.635 0.080 0.917 0.23 0.372 0.196 0.785 0.3 1.205 0.303h0.022c0.42-0.003 0.833-0.106 1.205-0.301 0.282-0.151 0.597-0.231 0.917-0.233 0.67 0.023 1.295 0.342 1.707 0.87 0.013 0.019 0.027 0.036 0.043 0.053 0.616 0.805 0.939 1.796 0.917 2.81 0 0.324-0.030 0.647-0.091 0.965-0.004 0.034-0.004 0.068 0 0.101h-7.215c0.002-0.057-0.005-0.115-0.021-0.17-0.094-0.289-0.141-0.592-0.139-0.897-0.022-0.513 0.126-1.019 0.42-1.44 0.182-0.232 0.141-0.567-0.090-0.749s-0.567-0.141-0.749 0.090c-0.438 0.611-0.665 1.347-0.647 2.099 0.001 0.361 0.053 0.72 0.153 1.067h-1.13c0.004-0.034 0.004-0.068 0-0.101-0.061-0.318-0.091-0.641-0.090-0.965-0.022-1.012 0.301-2.002 0.915-2.807 0.016-0.018 0.031-0.037 0.044-0.056 0.412-0.529 1.038-0.848 1.708-0.87zM6.933 6.4c0.319 0 0.632 0.078 0.914 0.227 0.374 0.199 0.79 0.304 1.214 0.307h0.011c0.423-0.002 0.838-0.107 1.212-0.305 0.143-0.071 0.294-0.125 0.45-0.16-0.399 0.807-0.605 1.697-0.601 2.598 0.001 0.358 0.033 0.715 0.097 1.067h-5.963c0-2.058 1.196-3.733 2.667-3.733zM2.667 11.733c0-0.295 0.239-0.533 0.533-0.533h25.6c0.295 0 0.533 0.239 0.533 0.533v1.067c0 0.295-0.239 0.533-0.533 0.533h-25.6c-0.295 0-0.533-0.239-0.533-0.533zM26.133 21.333h-18.115l-0.581-2.773c-0.035-0.19-0.171-0.346-0.354-0.408s-0.386-0.019-0.529 0.111c-0.143 0.13-0.205 0.327-0.161 0.516l0.533 2.56h-1.061c-0.010 0-0.018 0-0.028 0l-1.45-6.939h23.221l-1.45 6.933c-0.010 0-0.018 0-0.028 0zM1.067 16.533v-2.667c0.001-0.385 0.211-0.739 0.548-0.926 0.071 0.824 0.759 1.457 1.586 1.459h0.1l1.419 6.789c-2.142-0.529-3.649-2.449-3.653-4.655zM24.34 30.044c-0.17 0.56-0.704 0.929-1.289 0.89h-14.102c-0.584 0.039-1.118-0.329-1.289-0.89l-1.598-7.644h1.090l1.473 7.040c0.051 0.248 0.268 0.426 0.521 0.427 0.037-0 0.074-0.004 0.11-0.011 0.139-0.029 0.26-0.112 0.337-0.23s0.105-0.263 0.076-0.401l-1.427-6.824h17.696zM30.933 16.533c-0.004 2.207-1.511 4.127-3.653 4.655l1.419-6.789h0.1c0.827-0.002 1.515-0.636 1.586-1.459 0.337 0.187 0.546 0.541 0.548 0.926z"></path>
<path d="M6.933 16.533c0 0.295-0.239 0.533-0.533 0.533s-0.533-0.239-0.533-0.533c0-0.295 0.239-0.533 0.533-0.533s0.533 0.239 0.533 0.533z"></path>
</symbol>
<symbol id="icon-arrow-ico" viewBox="0 0 26 32">
<path stroke-linejoin="round" stroke-linecap="round" stroke-miterlimit="4" stroke-width="6.4" d="M5.172 3.2l14.169 12.8-14.169 12.8"></path>
</symbol>
<symbol id="icon-for-people" viewBox="0 0 57 32">
<path fill="#fff" style="fill: var(--color1, #fff); stroke: var(--color2, #c4c4c4)" stroke="#c4c4c4" stroke-linejoin="miter" stroke-linecap="butt" stroke-miterlimit="4" stroke-width="0.4444" d="M57.111 16.852c0-4.088-2.431-7.814-6.412-10.528s-9.491-4.398-15.588-4.398-11.608 1.685-15.588 4.398c-3.981 2.714-6.412 6.44-6.412 10.528s2.431 7.814 6.412 10.528c3.98 2.713 9.491 4.398 15.588 4.398s11.608-1.685 15.588-4.398c3.981-2.714 6.412-6.44 6.412-10.528z"></path>
<path fill="#fff" style="fill: var(--color1, #fff); stroke: var(--color2, #c4c4c4)" stroke="#c4c4c4" stroke-linejoin="miter" stroke-linecap="butt" stroke-miterlimit="4" stroke-width="0.4444" d="M10.447 7.685c0-0.873-0.668-1.56-1.468-1.56s-1.468 0.687-1.468 1.56c0 0.873 0.668 1.56 1.468 1.56s1.468-0.687 1.468-1.56z"></path>
<path fill="#fff" style="fill: var(--color1, #fff); stroke: var(--color2, #c4c4c4)" stroke="#c4c4c4" stroke-linejoin="miter" stroke-linecap="butt" stroke-miterlimit="4" stroke-width="0.4444" d="M5.593 3.52c0-0.627-0.479-1.114-1.045-1.114s-1.045 0.488-1.045 1.114 0.479 1.114 1.045 1.114c0.566 0 1.045-0.488 1.045-1.114z"></path>
<path fill="#fff" style="fill: var(--color1, #fff); stroke: var(--color2, #c4c4c4)" stroke="#c4c4c4" stroke-linejoin="miter" stroke-linecap="butt" stroke-miterlimit="4" stroke-width="0.4444" d="M1.468 0.891c0-0.381-0.29-0.669-0.623-0.669s-0.623 0.288-0.623 0.669c0 0.381 0.29 0.669 0.623 0.669s0.623-0.288 0.623-0.669z"></path>
</symbol>
<symbol id="icon-ice-cream" viewBox="0 0 32 32">
<path fill="#ffc2e8" style="fill: var(--color1, #ffc2e8)" d="M23.666 12.21v11.508h-15.331v-13.424c0 1.058 0.858 1.916 1.916 1.916s1.916-0.858 1.916-1.916v-1.917c0-1.058 0.858-1.916 1.917-1.916s1.916 0.858 1.916 1.916v5.749c0 1.059 0.858 1.917 1.916 1.917s1.917-0.858 1.917-1.917v-1.916c0-1.058 0.858-1.916 1.916-1.916s1.916 0.858 1.916 1.916z"></path>
<path fill="#ff9ad8" style="fill: var(--color2, #ff9ad8)" d="M23.666 8.136v4.074c0-1.058-0.858-1.916-1.916-1.916s-1.916 0.858-1.916 1.916v1.916c0 1.059-0.858 1.917-1.917 1.917s-1.916-0.858-1.916-1.917v-5.749c0-1.058-0.858-1.916-1.916-1.916s-1.917 0.858-1.917 1.916v1.917c0 1.058-0.858 1.916-1.916 1.916s-1.916-0.858-1.916-1.916v-2.158c0-4.147 3.362-7.51 7.51-7.51h0.312c4.148 0 7.51 3.362 7.51 7.51z"></path>
<path fill="#fedc75" style="fill: var(--color3, #fedc75)" d="M17.884 23.718v5.772c0 1.041-0.844 1.884-1.884 1.884-0.521 0-0.991-0.211-1.332-0.552s-0.552-0.812-0.552-1.332v-5.772z"></path>
<path fill="#000" style="fill: var(--color4, #000)" d="M16.156 0h-0.312c-4.486 0-8.136 3.65-8.136 8.136v15.582c0 0.346 0.28 0.626 0.626 0.626h5.156v5.146c0 1.384 1.126 2.51 2.51 2.51s2.51-1.126 2.51-2.51v-5.146h5.156c0.346 0 0.626-0.28 0.626-0.626v-15.582c-0-4.486-3.65-8.136-8.136-8.136zM8.96 8.136c0-3.796 3.088-6.884 6.884-6.884h0.312c3.796 0 6.884 3.088 6.884 6.884v1.885c-0.379-0.224-0.82-0.353-1.291-0.353-1.402 0-2.542 1.14-2.542 2.542v1.916c0 0.712-0.579 1.291-1.291 1.291s-1.291-0.579-1.291-1.291v-5.749c0-1.402-1.14-2.542-2.542-2.542s-2.542 1.141-2.542 2.542v1.916c0 0.712-0.579 1.291-1.291 1.291s-1.291-0.579-1.291-1.291v-2.158zM17.259 29.49c0 0.694-0.565 1.259-1.259 1.259s-1.259-0.565-1.259-1.259v-5.146h2.517zM23.040 23.092h-14.080v-10.61c0.379 0.224 0.82 0.353 1.291 0.353 1.402 0 2.542-1.14 2.542-2.542v-1.916c0-0.712 0.579-1.291 1.291-1.291s1.291 0.579 1.291 1.291v5.749c0 1.402 1.14 2.542 2.542 2.542s2.542-1.14 2.542-2.542v-1.917c0-0.712 0.579-1.291 1.291-1.291s1.291 0.579 1.291 1.291v10.883z"></path>
<path fill="#000" style="fill: var(--color4, #000)" d="M16.313 3.63c1.687 0 3.176 1.014 3.793 2.584 0.097 0.247 0.333 0.397 0.583 0.397 0.076 0 0.154-0.014 0.229-0.043 0.322-0.126 0.48-0.49 0.354-0.811-0.387-0.985-1.052-1.825-1.924-2.431-0.893-0.62-1.942-0.948-3.033-0.948-0.346 0-0.626 0.28-0.626 0.626s0.28 0.626 0.626 0.626z"></path>
<path fill="#000" style="fill: var(--color4, #000)" d="M21.133 7.063c-0.426 0.072-0.648 0.61-0.398 0.961 0.301 0.461 1.031 0.316 1.134-0.225 0.097-0.42-0.315-0.833-0.736-0.736z"></path>
</symbol>
</defs>
</svg>
